<?xml version="1.0" ?><!DOCTYPE svg  PUBLIC '-//W3C//DTD SVG 1.1//EN'  'http://www.w3.org/Graphics/SVG/1.1/DTD/svg11.dtd'><svg xmlns="http://www.w3.org/2000/svg" xmlns:xlink="http://www.w3.org/1999/xlink" xmlns:serif="http://www.serif.com/" width="100%" height="100%" viewBox="0 0 512 512" version="1.1" xml:space="preserve" style="fill-rule:evenodd;clip-rule:evenodd;stroke-linejoin:round;stroke-miterlimit:2;"><g transform="matrix(1,0,0,1,0,-2810)"><g id="Icons"><path d="M262.698,2935.58L165.263,2963.47C162.261,2964.33 159.833,2966.55 158.699,2969.45L28.839,3302.37C27.288,3306.34 28.433,3310.87 31.69,3313.63C34.947,3316.39 39.598,3316.78 43.268,3314.59L317.153,3151.68C319.001,3150.58 320.445,3148.92 321.272,3146.93L366.213,3039.09L371.471,3044.35L371.844,3044.71L372.23,3045.04L372.629,3045.35L373.039,3045.63L373.46,3045.9L373.891,3046.14L374.331,3046.35L374.779,3046.55L375.233,3046.72L375.694,3046.87L376.161,3046.99L376.632,3047.1L377.106,3047.18L377.583,3047.23L378.062,3047.27L378.542,3047.28L379.022,3047.27L379.501,3047.23L379.978,3047.18L380.453,3047.1L380.924,3046.99L381.39,3046.87L381.851,3046.72L382.306,3046.55L382.754,3046.35L383.193,3046.14L383.624,3045.9L384.045,3045.63L384.456,3045.35L384.854,3045.04L385.186,3044.76L480.489,2960.03C482.573,2958.18 483.789,2955.54 483.843,2952.75C483.896,2949.96 482.782,2947.27 480.769,2945.34L348.924,2818.79C346.901,2816.84 344.157,2815.84 341.359,2816.02C338.561,2816.2 335.967,2817.55 334.209,2819.73L256.284,2916.54C253.082,2920.52 253.392,2926.27 257.003,2929.88L262.698,2935.58ZM278.871,2951.75L175.531,2981.34C175.531,2981.34 58.042,3282.53 58.042,3282.53C120.639,3245.3 280.783,3150.04 304.084,3136.18L350.919,3023.8L278.871,2951.75ZM141.865,3215.91L161.998,3203.12C166.657,3200.16 168.037,3193.98 165.077,3189.32C162.118,3184.66 155.933,3183.28 151.274,3186.24L131.141,3199.03C126.482,3201.99 125.103,3208.18 128.062,3212.83C131.022,3217.49 137.207,3218.87 141.865,3215.91ZM187.263,3187.07L274.425,3131.7C279.084,3128.74 280.463,3122.56 277.504,3117.9C274.544,3113.24 268.36,3111.86 263.701,3114.82L176.539,3170.19C171.88,3173.15 170.501,3179.34 173.46,3183.99C176.42,3188.65 182.605,3190.03 187.263,3187.07ZM369.91,3014.51L378.946,3023.54L459.11,2952.28C435.723,2929.83 366.417,2863.3 342.947,2840.77C342.947,2840.77 277.493,2922.09 277.493,2922.09L288.812,2933.41L288.835,2933.43L288.916,2933.51L369.672,3014.27C369.752,3014.35 369.832,3014.43 369.91,3014.51Z"/></g></g></svg>